
        <svg xmlns="http://www.w3.org/2000/svg" xmlns:xlink="http://www.w3.org/1999/xlink" version="1.1" width="3161.9575856303472" 
        height="830.2981309800638" viewBox="0 0 3161.9575856303472 830.2981309800638">
			<rect fill="#000000" width="3161.9575856303472" height="830.2981309800638"/>
			<g transform="scale(8.09787928151738) translate(10, 10)">
				<defs id="SvgjsDefs1353"></defs><g id="SvgjsG1354" featureKey="symbolFeature-0" transform="matrix(0.8661760337629006,0,0,0.8661760337629006,-2.3040603335849803,-1.7734639483702552)" fill="#ffffff"><path xmlns="http://www.w3.org/2000/svg" d="M94.158,75.192c-0.043-0.043-0.09-0.078-0.134-0.121l0.006-0.006c-0.165-0.16-0.341-0.301-0.512-0.451  c-0.135-0.118-0.265-0.244-0.404-0.355c-0.203-0.164-0.415-0.31-0.626-0.46c-0.141-0.1-0.278-0.208-0.422-0.302  c-0.221-0.144-0.45-0.271-0.677-0.4c-0.142-0.081-0.28-0.17-0.425-0.245c-0.242-0.126-0.49-0.233-0.738-0.342  c-0.136-0.06-0.27-0.129-0.407-0.184c-0.267-0.107-0.54-0.195-0.813-0.284c-0.123-0.04-0.244-0.089-0.368-0.125  c-0.298-0.087-0.6-0.155-0.902-0.22c-0.102-0.022-0.203-0.052-0.305-0.072c-0.335-0.064-0.672-0.108-1.01-0.146  c-0.072-0.008-0.143-0.023-0.215-0.029c-0.369-0.035-0.738-0.049-1.108-0.053c-0.043,0-0.086-0.005-0.129-0.005  c-0.409,0-0.819,0.02-1.227,0.059c-0.003,0-0.006,0-0.006,0c-0.573,0.055-1.137,0.158-1.697,0.287  c-6.852-4.088-16.626-11.98-26.886-21.976c10.966-10.776,21.258-19.598,28.506-24.654c3.75,0.839,7.833-0.19,10.751-3.108  c4.533-4.533,4.533-11.883,0-16.417s-11.883-4.533-16.417,0c-2.918,2.918-3.947,7.001-3.108,10.751  c-5.056,7.247-13.878,17.54-24.654,28.506c-9.996-10.261-17.888-20.034-21.976-26.886c0.129-0.56,0.232-1.124,0.287-1.693  c0.001-0.007,0-0.013,0.001-0.02c0.038-0.405,0.058-0.811,0.058-1.217c0-0.043-0.005-0.087-0.005-0.13  c-0.003-0.369-0.018-0.738-0.053-1.106c-0.007-0.075-0.022-0.149-0.031-0.223c-0.038-0.336-0.081-0.67-0.145-1.003  c-0.02-0.103-0.05-0.203-0.072-0.305c-0.066-0.302-0.133-0.604-0.22-0.902c-0.036-0.123-0.084-0.243-0.124-0.365  c-0.089-0.274-0.178-0.548-0.286-0.817c-0.054-0.135-0.122-0.266-0.181-0.399c-0.111-0.25-0.219-0.501-0.346-0.746  c-0.074-0.143-0.162-0.279-0.242-0.42c-0.13-0.229-0.257-0.459-0.403-0.682c-0.094-0.143-0.201-0.28-0.301-0.42  c-0.15-0.211-0.297-0.424-0.462-0.628c-0.111-0.137-0.235-0.266-0.352-0.4c-0.151-0.172-0.292-0.349-0.453-0.515L24.92,5.967  c-0.042-0.043-0.078-0.091-0.121-0.134c-3.403-3.403-8.22-4.503-12.555-3.335l7.146,7.146c0.509,0.509,0.509,1.343,0,1.852  l-7.281,7.281c-0.509,0.509-1.343,0.509-1.852,0l-7.146-7.146c-1.169,4.335-0.068,9.152,3.335,12.555  c0.043,0.043,0.09,0.078,0.134,0.121l-0.006,0.006c0.165,0.16,0.341,0.301,0.512,0.451c0.135,0.118,0.265,0.244,0.404,0.355  c0.203,0.164,0.415,0.31,0.626,0.46c0.141,0.1,0.278,0.208,0.422,0.302c0.221,0.145,0.45,0.271,0.677,0.4  c0.142,0.081,0.28,0.17,0.425,0.245c0.242,0.126,0.49,0.233,0.738,0.342c0.136,0.06,0.27,0.129,0.407,0.184  c0.267,0.107,0.54,0.195,0.813,0.284c0.123,0.04,0.244,0.089,0.368,0.125c0.298,0.087,0.6,0.155,0.902,0.22  c0.102,0.022,0.203,0.052,0.305,0.072c0.335,0.064,0.672,0.108,1.01,0.146c0.072,0.008,0.143,0.023,0.215,0.029  c0.368,0.035,0.738,0.049,1.108,0.053c0.043,0,0.086,0.005,0.129,0.005c0.409,0,0.819-0.02,1.227-0.059c0.003,0,0.006,0,0.009,0  c0.086-0.008,0.17-0.025,0.256-0.035c6.876,3.944,16.989,12.046,27.625,22.406C34.049,60.765,24.038,69.325,16.945,74.273  c-3.75-0.839-7.833,0.19-10.751,3.108c-4.533,4.533-4.533,11.883,0,16.417s11.883,4.533,16.417,0  c2.918-2.918,3.947-7.001,3.108-10.751c4.948-7.093,13.508-17.104,23.972-27.807c10.361,10.636,18.462,20.75,22.406,27.625  c-0.01,0.085-0.027,0.17-0.035,0.255c-0.001,0.007,0,0.013-0.001,0.02c-0.038,0.405-0.058,0.811-0.058,1.217  c0,0.043,0.005,0.087,0.005,0.13c0.003,0.369,0.018,0.738,0.053,1.106c0.007,0.075,0.022,0.149,0.031,0.223  c0.038,0.336,0.081,0.67,0.145,1.003c0.02,0.103,0.05,0.203,0.072,0.305c0.066,0.302,0.133,0.604,0.22,0.902  c0.036,0.123,0.084,0.243,0.124,0.365c0.089,0.274,0.178,0.548,0.286,0.817c0.054,0.135,0.122,0.266,0.181,0.399  c0.111,0.25,0.219,0.501,0.346,0.746c0.074,0.143,0.162,0.279,0.242,0.42c0.13,0.229,0.257,0.459,0.403,0.682  c0.094,0.143,0.201,0.28,0.301,0.42c0.15,0.211,0.297,0.424,0.462,0.628c0.111,0.137,0.235,0.266,0.352,0.4  c0.151,0.172,0.292,0.349,0.453,0.515l0.006-0.006c0.042,0.043,0.078,0.091,0.121,0.134c3.403,3.403,8.22,4.503,12.555,3.335  l-7.146-7.146c-0.509-0.509-0.509-1.343,0-1.852l7.281-7.281c0.509-0.509,1.343-0.509,1.852,0l7.146,7.146  C98.661,83.412,97.561,78.595,94.158,75.192z M78.335,11.037L78.04,8.662l2.268-0.765l0.765-2.268l2.376,0.295l1.674-1.712  l2.012,1.296l2.25-0.816l1.251,2.041l2.382,0.241l0.241,2.382l2.041,1.251l-0.816,2.25l1.296,2.012l-1.712,1.674l0.295,2.376  l-2.268,0.765l-0.765,2.268l-2.376-0.295l-1.674,1.712l-2.012-1.296l-2.25,0.816l-1.251-2.041l-2.382-0.241l-0.241-2.382  l-2.041-1.251l0.816-2.25l-1.296-2.012L78.335,11.037z M22.27,88.342l0.295,2.376l-2.268,0.765l-0.765,2.268l-2.376-0.295  l-1.674,1.712l-2.012-1.296l-2.25,0.816l-1.251-2.041l-2.382-0.241l-0.241-2.382l-2.041-1.251l0.816-2.25L4.824,84.51l1.712-1.674  l-0.295-2.376l2.268-0.765l0.765-2.268l2.376,0.295l1.674-1.712l2.012,1.296l2.25-0.816l1.251,2.041l2.382,0.241l0.241,2.382  l2.041,1.251l-0.816,2.25l1.296,2.012L22.27,88.342z"></path></g><g id="SvgjsG1355" featureKey="nameFeature-0" transform="matrix(1.3594551455846557,0,0,1.3594551455846557,102.99999740704509,-8.740378520375234)" fill="#ffffff"><path d="M24.2 34.4 c1.08 2.56 2.16 5.4 4.68 5.4 l0 0.2 l-11.84 0 l0 -0.2 c1.96 0 2.24 -0.76 1.12 -3.68 c-0.4 -1.12 -1.44 -3.84 -2.56 -6.8 l-7.72 0 c-0.6 1.52 -1 2.56 -1.12 2.84 c-1.24 3.36 -0.92 7.64 1.76 7.64 l0 0.2 l-8.52 0 l0 -0.2 c2.56 -0.48 4.44 -2.24 6 -6.2 c1.36 -3.48 8.44 -21.6 8.44 -21.6 l0.88 0 s7.84 19.84 8.88 22.4 z M7.92 29.16 l7.6 0 c-1.68 -4.36 -3.48 -9.12 -3.76 -9.8 c-1.32 3.36 -2.8 7.2 -3.84 9.8 z M46.837999999999994 12 l5.44 0 l0 0.2 c-2.56 0 -2.64 2 -2.64 5.68 l0 13.6 c-0.08 6.24 -4.4 8.92 -8.04 8.92 c-6.4 0 -12.52 -1.76 -12.52 -9.52 l0 -14.28 c0 -2.96 -0.24 -4.4 -2.52 -4.4 l0 -0.2 l11.44 0 l0 0.2 c-2.28 0 -2.48 1.44 -2.52 4.4 l0 15.48 c0 4.64 1.96 8.04 6.12 8.04 c4.36 0 7.84 -3.52 7.84 -8.84 l0 -13.4 c0 -3.68 -0.04 -5.68 -2.6 -5.68 l0 -0.2 z M76.596 12 l0.76 6.2 l-0.2 0 c-1.12 -2.6 -2.84 -5.96 -6.76 -6 c-2.2 0.04 -2.4 1.48 -2.44 4.4 l0 18.8 c0.04 2.92 0.24 4.4 2.52 4.4 l0 0.2 l-11.24 0 l0 -0.2 c2.28 0 2.52 -1.48 2.52 -4.4 l0 -18.8 c0 -2.92 -0.24 -4.36 -2.44 -4.4 c-3.92 0.04 -5.6 3.4 -6.76 6 l-0.2 0 l0.76 -6.2 l23.48 0 z M108.874 24.36 c0.68 9.08 -5.28 15.28 -13.8 16 c-8.56 0.68 -16.44 -4.44 -17.16 -13.16 c-0.72 -8.76 5.36 -14.84 13.88 -15.56 c8.56 -0.68 16.44 4.32 17.08 12.72 z M95.074 40.16 c4.64 -0.52 7.28 -6.92 6.72 -14.92 c-0.56 -7.96 -5.28 -13.8 -10.04 -13.4 c-4.64 0.48 -7.52 7.12 -6.72 14.8 c0.8 7.76 5.28 13.88 10.04 13.52 z M137.39 33.8 c1.16 2.56 3.2 6 6 6 l0 0.2 l-4.24 0 c-1.76 0 -4.88 0 -6.4 -1.76 c-3.48 -3.92 -2.68 -12.04 -6.8 -12.28 l-1.36 0 l0 9.44 c0.04 2.92 0.24 4.4 2.52 4.4 l0 0.2 l-11.24 0 l0 -0.2 c2.28 0 2.52 -1.48 2.52 -4.4 l0 -18.8 c0 -2.96 -0.24 -4.4 -2.52 -4.4 l0 -0.2 l12.68 0 c3.88 0 8.92 1.72 8.92 6.96 c0 4.6 -3.76 6.48 -7.6 6.92 c4.6 0.92 5.76 4 7.52 7.92 z M124.59 25.759999999999998 l3.04 0 c2.96 0 3.28 -3.6 3.28 -6.8 s-1 -6.76 -3.28 -6.76 l-0.52 0 c-2.28 0 -2.48 1.44 -2.52 4.4 l0 9.16 z M171.108 24.36 c0.68 9.08 -5.28 15.28 -13.8 16 c-8.56 0.68 -16.44 -4.44 -17.16 -13.16 c-0.72 -8.76 5.36 -14.84 13.88 -15.56 c8.56 -0.68 16.44 4.32 17.08 12.72 z M157.308 40.16 c4.64 -0.52 7.28 -6.92 6.72 -14.92 c-0.56 -7.96 -5.28 -13.8 -10.04 -13.4 c-4.64 0.48 -7.52 7.12 -6.72 14.8 c0.8 7.76 5.28 13.88 10.04 13.52 z M190.18599999999998 33.04 c1.48 2.36 4.08 6.76 6.56 6.76 l0 0.2 l-11.8 0 l0 -0.2 c1.92 0 1.28 -2.32 0.2 -4.16 c-0.6 -0.96 -2.52 -4.2 -4.52 -7.6 c-1.52 2.32 -3.44 5.2 -4.12 6.24 c-1.76 2.56 -1.64 5.52 1.04 5.52 l0 0.2 l-8.72 0 l0 -0.2 c2.56 -0.44 4.84 -1.88 7 -4.92 c1.2 -1.68 3.2 -4.68 4.68 -7 c-1.88 -3.24 -3.84 -6.52 -4.8 -8.12 c-1.4 -2.44 -4.36 -7.56 -7.08 -7.56 l0 -0.2 l11.84 0 l0 0.2 c-2 0 -1.28 2.36 0 4.52 c1.16 1.96 2.52 4.24 3.84 6.52 c1.36 -2.08 2.96 -4.56 3.64 -5.52 c1.76 -2.56 1.64 -5.52 -1.08 -5.52 l0 -0.2 l8.72 0 l0 0.2 c-2.56 0.44 -4.8 1.88 -6.96 4.92 c-1.16 1.6 -2.84 4.2 -4.2 6.28 c2.56 4.32 5 8.44 5.76 9.64 z"></path></g><g id="SvgjsG1356" featureKey="sloganFeature-0" transform="matrix(0.6713919363156071,0,0,0.6713919363156071,101.77370298944268,62.64304031842197)" fill="#ffffff"><path d="M10.723 5.888999999999999 l2.9297 0 l0 14.111 l-2.9297 0 l0 -5.8008 l-5.9668 0 l0 5.8008 l-2.9297 0 l0 -14.111 l2.9297 0 l0 5.7617 l5.9668 0 l0 -5.7617 z M23.8037109375 17.2754 c0 1.2305 0.11719 2.0117 0.24414 2.4512 l0 0.27344 l-2.627 0 l-0.22461 -1.0938 c-0.75195 0.9082 -2.0508 1.2891 -3.2227 1.2891 c-1.582 0 -3.125 -0.70313 -3.125 -2.793 c0 -2.0801 1.5527 -2.7832 3.6523 -3.2422 l1.6504 -0.37109 c0.71289 -0.16602 0.9668 -0.41016 0.9668 -0.82031 c0 -0.98633 -0.89844 -1.2598 -1.6895 -1.2598 c-1.0156 0 -1.7871 0.40039 -1.9629 1.5332 l-2.4902 -0.44922 c0.41992 -2.0801 1.9434 -3.0273 4.6094 -3.0273 c2.0117 0 4.2188 0.5957 4.2188 3.623 l0 3.8867 z M18.8525109375 18.291 c1.3379 0 2.4121 -0.88867 2.4121 -2.8809 l-2.3828 0.67383 c-0.78125 0.18555 -1.3477 0.45898 -1.3477 1.1328 c0 0.72266 0.5957 1.0742 1.3184 1.0742 z M31.103503125 9.766 c2.4121 0 3.7402 1.25 3.7402 3.4766 l0 6.7578 l-2.8223 0 l0 -6.1523 c0 -1.3379 -0.83008 -1.8262 -1.7969 -1.8262 c-1.1621 0 -2.2168 0.58594 -2.2363 2.4414 l0 5.5371 l-2.8125 0 l0 -10.039 l2.8125 0 l0 1.1133 c0.70313 -0.83008 1.7871 -1.3086 3.1152 -1.3086 z M43.3251765625 5 l2.8125 0 l0 15 l-2.666 0 l-0.068359 -1.3086 c-0.57617 0.98633 -1.7871 1.543 -3.1543 1.543 c-2.6465 0 -4.834 -1.9531 -4.834 -5.2344 s2.1973 -5.2344 4.834 -5.2344 c1.3184 0 2.4805 0.49805 3.0762 1.4063 l0 -6.1719 z M40.8935765625 17.9004 c1.4941 0 2.6563 -1.1426 2.6563 -2.9004 s-1.1719 -2.9102 -2.6563 -2.9102 c-1.4941 0 -2.666 1.1035 -2.666 2.9102 c0 1.7969 1.1719 2.9004 2.666 2.9004 z M51.22066875 20.19531 c-2.2559 0 -4.0039 -0.88867 -4.3652 -2.793 l2.3535 -0.66406 c0.30273 1.0742 1.0645 1.4941 2.0117 1.4941 c0.69336 0 1.4453 -0.21484 1.4258 -1.0059 c-0.0097656 -1.0449 -1.5918 -1.1328 -3.1836 -1.6992 c-1.2012 -0.41992 -2.3535 -1.0645 -2.3535 -2.7539 c0 -2.0605 1.709 -3.0078 3.9355 -3.0078 c1.9531 0 3.584 0.74219 3.9746 2.6563 l-2.1777 0.48828 c-0.30273 -0.9375 -0.9668 -1.2695 -1.7871 -1.2695 c-0.74219 0 -1.377 0.26367 -1.377 0.88867 c0 0.79102 1.1621 0.94727 2.4219 1.2891 c1.5527 0.41992 3.252 1.0938 3.252 3.2422 c0 2.3047 -1.9629 3.1348 -4.1309 3.1348 z M63.583971875 20 c-1.9531 0 -3.0664 -1.1328 -3.0664 -3.1348 l0 -4.7461 l-1.9727 0 l0 -2.1582 l0.63477 0 c1.0645 0 1.6504 -0.41016 1.6504 -1.9141 l0 -1.3281 l2.5391 0 l0 3.2422 l2.0703 0 l0 2.1582 l-2.0703 0 l0 4.4434 c0 0.89844 0.43945 1.2988 1.1621 1.2988 l0.9082 0 l0 2.1387 l-1.8555 0 z M72.3291046875 9.766 c2.2461 0 3.5938 1.25 3.5938 3.7598 l0 6.4746 l-2.8223 0 l0 -6.0156 c0 -1.4746 -0.82031 -1.9629 -1.8262 -1.9629 c-1.0449 0 -2.1875 0.51758 -2.207 2.4414 l0 5.5371 l-2.8125 0 l0 -15 l2.8125 0 l0 6.1621 c0.71289 -0.86914 1.8359 -1.3965 3.2617 -1.3965 z M85.498046875 17.2754 c0 1.2305 0.11719 2.0117 0.24414 2.4512 l0 0.27344 l-2.627 0 l-0.22461 -1.0938 c-0.75195 0.9082 -2.0508 1.2891 -3.2227 1.2891 c-1.582 0 -3.125 -0.70313 -3.125 -2.793 c0 -2.0801 1.5527 -2.7832 3.6523 -3.2422 l1.6504 -0.37109 c0.71289 -0.16602 0.9668 -0.41016 0.9668 -0.82031 c0 -0.98633 -0.89844 -1.2598 -1.6895 -1.2598 c-1.0156 0 -1.7871 0.40039 -1.9629 1.5332 l-2.4902 -0.44922 c0.41992 -2.0801 1.9434 -3.0273 4.6094 -3.0273 c2.0117 0 4.2188 0.5957 4.2188 3.623 l0 3.8867 z M80.546846875 18.291 c1.3379 0 2.4121 -0.88867 2.4121 -2.8809 l-2.3828 0.67383 c-0.78125 0.18555 -1.3477 0.45898 -1.3477 1.1328 c0 0.72266 0.5957 1.0742 1.3184 1.0742 z M90.6103390625 20 c-1.9531 0 -3.0664 -1.1328 -3.0664 -3.1348 l0 -4.7461 l-1.9727 0 l0 -2.1582 l0.63477 0 c1.0645 0 1.6504 -0.41016 1.6504 -1.9141 l0 -1.3281 l2.5391 0 l0 3.2422 l2.0703 0 l0 2.1582 l-2.0703 0 l0 4.4434 c0 0.89844 0.43945 1.2988 1.1621 1.2988 l0.9082 0 l0 2.1387 l-1.8555 0 z M103.7646796875 9.961 l2.8125 0 l0 10.039 l-2.666 0 l-0.068359 -1.2109 c-0.70313 0.88867 -1.8164 1.4063 -3.1934 1.4063 c-2.4121 0 -3.7402 -1.2598 -3.7402 -3.4766 l0 -6.7578 l2.8223 0 l0 6.1523 c0 1.3281 0.83008 1.8164 1.8066 1.8164 c1.1621 0 2.2168 -0.58594 2.2266 -2.4316 l0 -5.5371 z M114.052721875 9.766 c2.4121 0 3.7402 1.25 3.7402 3.4766 l0 6.7578 l-2.8223 0 l0 -6.1523 c0 -1.3379 -0.83008 -1.8262 -1.7969 -1.8262 c-1.1621 0 -2.2168 0.58594 -2.2363 2.4414 l0 5.5371 l-2.8125 0 l0 -10.039 l2.8125 0 l0 1.1133 c0.70313 -0.83008 1.7871 -1.3086 3.1152 -1.3086 z M126.2743953125 5 l2.8125 0 l0 15 l-2.666 0 l-0.068359 -1.3086 c-0.57617 0.98633 -1.7871 1.543 -3.1543 1.543 c-2.6465 0 -4.834 -1.9531 -4.834 -5.2344 s2.1973 -5.2344 4.834 -5.2344 c1.3184 0 2.4805 0.49805 3.0762 1.4063 l0 -6.1719 z M123.8427953125 17.9004 c1.4941 0 2.6563 -1.1426 2.6563 -2.9004 s-1.1719 -2.9102 -2.6563 -2.9102 c-1.4941 0 -2.666 1.1035 -2.666 2.9102 c0 1.7969 1.1719 2.9004 2.666 2.9004 z M140.0776875 14.834 l-0.029297 0.67383 l-7.4414 0 c0.11719 1.6699 1.2305 2.4707 2.5684 2.4707 c1.0059 0 1.7871 -0.46875 2.168 -1.3574 l2.5781 0.38086 c-0.66406 2.0313 -2.4707 3.1934 -4.7266 3.1934 c-3.2422 0 -5.3613 -1.9141 -5.3613 -5.2148 s2.1777 -5.2344 5.2734 -5.2344 c2.8418 0 4.9609 1.5723 4.9707 5.0879 z M135.1269875 11.7383 c-1.2793 0 -2.168 0.5957 -2.4414 1.9336 l4.6094 0 c-0.14648 -1.2793 -1.0156 -1.9336 -2.168 -1.9336 z M143.5498140625 11.5527 c0.50781 -0.88867 1.8262 -1.709 3.2813 -1.709 l0 2.5098 c-2.1289 0 -3.1445 0.625 -3.1445 2.7539 l0 4.8926 l-2.832 0 l0 -10.039 l2.6953 0 l0 1.5918 z M150.6542625 20.19531 c-2.2559 0 -4.0039 -0.88867 -4.3652 -2.793 l2.3535 -0.66406 c0.30273 1.0742 1.0645 1.4941 2.0117 1.4941 c0.69336 0 1.4453 -0.21484 1.4258 -1.0059 c-0.0097656 -1.0449 -1.5918 -1.1328 -3.1836 -1.6992 c-1.2012 -0.41992 -2.3535 -1.0645 -2.3535 -2.7539 c0 -2.0605 1.709 -3.0078 3.9355 -3.0078 c1.9531 0 3.584 0.74219 3.9746 2.6563 l-2.1777 0.48828 c-0.30273 -0.9375 -0.9668 -1.2695 -1.7871 -1.2695 c-0.74219 0 -1.377 0.26367 -1.377 0.88867 c0 0.79102 1.1621 0.94727 2.4219 1.2891 c1.5527 0.41992 3.252 1.0938 3.252 3.2422 c0 2.3047 -1.9629 3.1348 -4.1309 3.1348 z M159.1845578125 20 c-1.9531 0 -3.0664 -1.1328 -3.0664 -3.1348 l0 -4.7461 l-1.9727 0 l0 -2.1582 l0.63477 0 c1.0645 0 1.6504 -0.41016 1.6504 -1.9141 l0 -1.3281 l2.5391 0 l0 3.2422 l2.0703 0 l0 2.1582 l-2.0703 0 l0 4.4434 c0 0.89844 0.43945 1.2988 1.1621 1.2988 l0.9082 0 l0 2.1387 l-1.8555 0 z M170.087890625 17.2754 c0 1.2305 0.11719 2.0117 0.24414 2.4512 l0 0.27344 l-2.627 0 l-0.22461 -1.0938 c-0.75195 0.9082 -2.0508 1.2891 -3.2227 1.2891 c-1.582 0 -3.125 -0.70313 -3.125 -2.793 c0 -2.0801 1.5527 -2.7832 3.6523 -3.2422 l1.6504 -0.37109 c0.71289 -0.16602 0.9668 -0.41016 0.9668 -0.82031 c0 -0.98633 -0.89844 -1.2598 -1.6895 -1.2598 c-1.0156 0 -1.7871 0.40039 -1.9629 1.5332 l-2.4902 -0.44922 c0.41992 -2.0801 1.9434 -3.0273 4.6094 -3.0273 c2.0117 0 4.2188 0.5957 4.2188 3.623 l0 3.8867 z M165.136690625 18.291 c1.3379 0 2.4121 -0.88867 2.4121 -2.8809 l-2.3828 0.67383 c-0.78125 0.18555 -1.3477 0.45898 -1.3477 1.1328 c0 0.72266 0.5957 1.0742 1.3184 1.0742 z M177.3876828125 9.766 c2.4121 0 3.7402 1.25 3.7402 3.4766 l0 6.7578 l-2.8223 0 l0 -6.1523 c0 -1.3379 -0.83008 -1.8262 -1.7969 -1.8262 c-1.1621 0 -2.2168 0.58594 -2.2363 2.4414 l0 5.5371 l-2.8125 0 l0 -10.039 l2.8125 0 l0 1.1133 c0.70313 -0.83008 1.7871 -1.3086 3.1152 -1.3086 z M189.60935625 5 l2.8125 0 l0 15 l-2.666 0 l-0.068359 -1.3086 c-0.57617 0.98633 -1.7871 1.543 -3.1543 1.543 c-2.6465 0 -4.834 -1.9531 -4.834 -5.2344 s2.1973 -5.2344 4.834 -5.2344 c1.3184 0 2.4805 0.49805 3.0762 1.4063 l0 -6.1719 z M187.17775625 17.9004 c1.4941 0 2.6563 -1.1426 2.6563 -2.9004 s-1.1719 -2.9102 -2.6563 -2.9102 c-1.4941 0 -2.666 1.1035 -2.666 2.9102 c0 1.7969 1.1719 2.9004 2.666 2.9004 z M206.03515625 17.2754 c0 1.2305 0.11719 2.0117 0.24414 2.4512 l0 0.27344 l-2.627 0 l-0.22461 -1.0938 c-0.75195 0.9082 -2.0508 1.2891 -3.2227 1.2891 c-1.582 0 -3.125 -0.70313 -3.125 -2.793 c0 -2.0801 1.5527 -2.7832 3.6523 -3.2422 l1.6504 -0.37109 c0.71289 -0.16602 0.9668 -0.41016 0.9668 -0.82031 c0 -0.98633 -0.89844 -1.2598 -1.6895 -1.2598 c-1.0156 0 -1.7871 0.40039 -1.9629 1.5332 l-2.4902 -0.44922 c0.41992 -2.0801 1.9434 -3.0273 4.6094 -3.0273 c2.0117 0 4.2188 0.5957 4.2188 3.623 l0 3.8867 z M201.08395625 18.291 c1.3379 0 2.4121 -0.88867 2.4121 -2.8809 l-2.3828 0.67383 c-0.78125 0.18555 -1.3477 0.45898 -1.3477 1.1328 c0 0.72266 0.5957 1.0742 1.3184 1.0742 z M214.0576484375 9.961 l2.8125 0 l0 10.039 l-2.666 0 l-0.068359 -1.2109 c-0.70313 0.88867 -1.8164 1.4063 -3.1934 1.4063 c-2.4121 0 -3.7402 -1.2598 -3.7402 -3.4766 l0 -6.7578 l2.8223 0 l0 6.1523 c0 1.3281 0.83008 1.8164 1.8066 1.8164 c1.1621 0 2.2168 -0.58594 2.2266 -2.4316 l0 -5.5371 z M222.158190625 20 c-1.9531 0 -3.0664 -1.1328 -3.0664 -3.1348 l0 -4.7461 l-1.9727 0 l0 -2.1582 l0.63477 0 c1.0645 0 1.6504 -0.41016 1.6504 -1.9141 l0 -1.3281 l2.5391 0 l0 3.2422 l2.0703 0 l0 2.1582 l-2.0703 0 l0 4.4434 c0 0.89844 0.43945 1.2988 1.1621 1.2988 l0.9082 0 l0 2.1387 l-1.8555 0 z M229.5068234375 20.19531 c-3.1934 0 -5.498 -1.9434 -5.498 -5.2246 c0 -3.2617 2.2852 -5.2051 5.498 -5.2051 c3.2324 0 5.5078 1.9434 5.5078 5.2051 c0 3.2813 -2.2852 5.2246 -5.5078 5.2246 z M229.4775234375 17.959 c1.6309 0 2.7441 -1.1914 2.7441 -2.9883 s-1.1133 -2.9883 -2.7441 -2.9883 c-1.5723 0 -2.6758 1.1914 -2.6758 2.9883 s1.1035 2.9883 2.6758 2.9883 z M244.1162171875 20.18555 c-3.1543 0 -5.3809 -2.0996 -5.3809 -5.2148 c0 -3.125 2.2266 -5.2051 5.3809 -5.2051 c2.5391 0 4.4434 1.3184 4.9316 3.6914 l-2.5977 0.2832 c-0.3125 -1.2012 -1.1816 -1.7578 -2.3633 -1.7578 c-1.5137 0 -2.5391 1.1914 -2.5391 2.9883 c0 1.7871 1.0254 2.9883 2.5391 2.9883 c1.1816 0 2.0508 -0.56641 2.3633 -1.7578 l2.5977 0.2832 c-0.48828 2.373 -2.4414 3.7012 -4.9316 3.7012 z M257.919921875 17.2754 c0 1.2305 0.11719 2.0117 0.24414 2.4512 l0 0.27344 l-2.627 0 l-0.22461 -1.0938 c-0.75195 0.9082 -2.0508 1.2891 -3.2227 1.2891 c-1.582 0 -3.125 -0.70313 -3.125 -2.793 c0 -2.0801 1.5527 -2.7832 3.6523 -3.2422 l1.6504 -0.37109 c0.71289 -0.16602 0.9668 -0.41016 0.9668 -0.82031 c0 -0.98633 -0.89844 -1.2598 -1.6895 -1.2598 c-1.0156 0 -1.7871 0.40039 -1.9629 1.5332 l-2.4902 -0.44922 c0.41992 -2.0801 1.9434 -3.0273 4.6094 -3.0273 c2.0117 0 4.2188 0.5957 4.2188 3.623 l0 3.8867 z M252.968721875 18.291 c1.3379 0 2.4121 -0.88867 2.4121 -2.8809 l-2.3828 0.67383 c-0.78125 0.18555 -1.3477 0.45898 -1.3477 1.1328 c0 0.72266 0.5957 1.0742 1.3184 1.0742 z M261.9873140625 11.5527 c0.50781 -0.88867 1.8262 -1.709 3.2813 -1.709 l0 2.5098 c-2.1289 0 -3.1445 0.625 -3.1445 2.7539 l0 4.8926 l-2.832 0 l0 -10.039 l2.6953 0 l0 1.5918 z M274.9995625 14.834 l-0.029297 0.67383 l-7.4414 0 c0.11719 1.6699 1.2305 2.4707 2.5684 2.4707 c1.0059 0 1.7871 -0.46875 2.168 -1.3574 l2.5781 0.38086 c-0.66406 2.0313 -2.4707 3.1934 -4.7266 3.1934 c-3.2422 0 -5.3613 -1.9141 -5.3613 -5.2148 s2.1777 -5.2344 5.2734 -5.2344 c2.8418 0 4.9609 1.5723 4.9707 5.0879 z M270.0488625 11.7383 c-1.2793 0 -2.168 0.5957 -2.4414 1.9336 l4.6094 0 c-0.14648 -1.2793 -1.0156 -1.9336 -2.168 -1.9336 z"></path></g>
			</g>
		</svg>
	